<mxfile host="Electron" agent="Mozilla/5.0 (Windows NT 10.0; Win64; x64) AppleWebKit/537.36 (KHTML, like Gecko) draw.io/24.7.8 Chrome/128.0.6613.36 Electron/32.0.1 Safari/537.36" version="24.7.8">
  <diagram name="Page-1" id="qtjcj-H5Qpepy6jBLXGC">
    <mxGraphModel dx="915" dy="823" grid="1" gridSize="10" guides="1" tooltips="1" connect="1" arrows="1" fold="1" page="1" pageScale="1" pageWidth="850" pageHeight="1100" math="0" shadow="0">
      <root>
        <mxCell id="0" />
        <mxCell id="1" parent="0" />
        <mxCell id="RQiN7Li-kQ4ZaUQcpRzk-1" value="container" style="shape=cylinder3;whiteSpace=wrap;html=1;boundedLbl=1;backgroundOutline=1;size=15;fontSize=16;" vertex="1" parent="1">
          <mxGeometry x="230" y="410" width="110" height="60" as="geometry" />
        </mxCell>
        <mxCell id="RQiN7Li-kQ4ZaUQcpRzk-2" value="ofstream&lt;div style=&quot;font-size: 14px;&quot;&gt;-------------------------------&lt;/div&gt;&lt;div style=&quot;font-size: 14px;&quot;&gt;&lt;div style=&quot;text-align: left; font-size: 14px;&quot;&gt;&lt;span style=&quot;background-color: initial; font-size: 14px;&quot;&gt;ofstream fout(&quot;out.txt&quot;);&lt;/span&gt;&lt;/div&gt;&lt;div style=&quot;font-size: 14px;&quot;&gt;ostream_iterator&amp;lt;T&amp;gt; first(fout, &quot; &quot;);&lt;/div&gt;&lt;div style=&quot;text-align: left; font-size: 14px;&quot;&gt;copy(v.begin(),v.end(),first);&lt;/div&gt;&lt;/div&gt;" style="rounded=1;whiteSpace=wrap;html=1;fontSize=14;" vertex="1" parent="1">
          <mxGeometry x="10" y="245" width="230" height="110" as="geometry" />
        </mxCell>
        <mxCell id="RQiN7Li-kQ4ZaUQcpRzk-6" value="string" style="shape=cylinder3;whiteSpace=wrap;html=1;boundedLbl=1;backgroundOutline=1;size=15;fontSize=16;" vertex="1" parent="1">
          <mxGeometry x="660" y="410" width="110" height="60" as="geometry" />
        </mxCell>
        <mxCell id="RQiN7Li-kQ4ZaUQcpRzk-7" value="" style="endArrow=classic;html=1;rounded=0;exitX=0.5;exitY=0;exitDx=0;exitDy=0;exitPerimeter=0;fontSize=14;entryX=1;entryY=1;entryDx=0;entryDy=0;" edge="1" parent="1" source="RQiN7Li-kQ4ZaUQcpRzk-1" target="RQiN7Li-kQ4ZaUQcpRzk-2">
          <mxGeometry width="50" height="50" relative="1" as="geometry">
            <mxPoint x="90" y="360" as="sourcePoint" />
            <mxPoint x="140" y="310" as="targetPoint" />
          </mxGeometry>
        </mxCell>
        <mxCell id="RQiN7Li-kQ4ZaUQcpRzk-8" value="ifstream&lt;div style=&quot;font-size: 14px;&quot;&gt;-------------------------------&lt;/div&gt;&lt;div style=&quot;font-size: 14px;&quot;&gt;&lt;div style=&quot;text-align: left; font-size: 14px;&quot;&gt;&lt;span style=&quot;background-color: initial; font-size: 14px;&quot;&gt;ifstream fin(&quot;in.txt&quot;);&lt;/span&gt;&lt;/div&gt;&lt;div style=&quot;font-size: 14px;&quot;&gt;istream_iterator&amp;lt;T&amp;gt; first(fin), last;&lt;/div&gt;&lt;div style=&quot;text-align: left; font-size: 14px;&quot;&gt;vector&amp;lt;T&amp;gt; v(first, last);&lt;/div&gt;&lt;/div&gt;" style="rounded=1;whiteSpace=wrap;html=1;fontSize=14;" vertex="1" parent="1">
          <mxGeometry x="330" y="245" width="220" height="110" as="geometry" />
        </mxCell>
        <mxCell id="RQiN7Li-kQ4ZaUQcpRzk-9" value="ifstream&lt;div style=&quot;font-size: 14px;&quot;&gt;-------------------------------&lt;/div&gt;&lt;div style=&quot;font-size: 14px;&quot;&gt;&lt;div style=&quot;text-align: left; font-size: 14px;&quot;&gt;&lt;span style=&quot;background-color: initial; font-size: 14px;&quot;&gt;ifstream fin(&quot;in.txt&quot;);&lt;/span&gt;&lt;/div&gt;&lt;div style=&quot;font-size: 14px;&quot;&gt;istreambuf_iterator&amp;lt;T&amp;gt; first(fin), last;&lt;/div&gt;&lt;div style=&quot;text-align: left; font-size: 14px;&quot;&gt;string s(first, last);&lt;/div&gt;&lt;/div&gt;" style="rounded=1;whiteSpace=wrap;html=1;fontSize=14;" vertex="1" parent="1">
          <mxGeometry x="580" y="245" width="240" height="110" as="geometry" />
        </mxCell>
        <mxCell id="RQiN7Li-kQ4ZaUQcpRzk-10" value="&lt;div style=&quot;font-size: 14px;&quot;&gt;cout&lt;/div&gt;&lt;div style=&quot;font-size: 14px;&quot;&gt;-------------------------------&lt;/div&gt;&lt;div style=&quot;font-size: 14px;&quot;&gt;&lt;div style=&quot;font-size: 14px;&quot;&gt;ostream_iterator&amp;lt;T&amp;gt; first(cout,&quot; &quot;);&lt;/div&gt;&lt;div style=&quot;text-align: left; font-size: 14px;&quot;&gt;copy(v.begin(), v.end(), first);&lt;/div&gt;&lt;/div&gt;" style="rounded=1;whiteSpace=wrap;html=1;fontSize=14;" vertex="1" parent="1">
          <mxGeometry x="20" y="530" width="220" height="80" as="geometry" />
        </mxCell>
        <mxCell id="RQiN7Li-kQ4ZaUQcpRzk-11" value="&lt;div style=&quot;font-size: 14px;&quot;&gt;cin&lt;/div&gt;&lt;div style=&quot;font-size: 14px;&quot;&gt;-------------------------------&lt;/div&gt;&lt;div style=&quot;font-size: 14px;&quot;&gt;&lt;div style=&quot;font-size: 14px;&quot;&gt;istream_iterator&amp;lt;T&amp;gt; first(cin), last;&lt;/div&gt;&lt;div style=&quot;text-align: left; font-size: 14px;&quot;&gt;vector&amp;lt;T&amp;gt; v(first, last);&lt;/div&gt;&lt;/div&gt;" style="rounded=1;whiteSpace=wrap;html=1;fontSize=14;" vertex="1" parent="1">
          <mxGeometry x="330" y="530" width="220" height="80" as="geometry" />
        </mxCell>
        <mxCell id="RQiN7Li-kQ4ZaUQcpRzk-12" value="" style="endArrow=classic;html=1;rounded=0;fontSize=14;exitX=0;exitY=1;exitDx=0;exitDy=0;" edge="1" parent="1" source="RQiN7Li-kQ4ZaUQcpRzk-8">
          <mxGeometry width="50" height="50" relative="1" as="geometry">
            <mxPoint x="400" y="400" as="sourcePoint" />
            <mxPoint x="290" y="410" as="targetPoint" />
          </mxGeometry>
        </mxCell>
        <mxCell id="RQiN7Li-kQ4ZaUQcpRzk-13" value="" style="endArrow=classic;html=1;rounded=0;entryX=1;entryY=0;entryDx=0;entryDy=0;exitX=0.5;exitY=1;exitDx=0;exitDy=0;exitPerimeter=0;" edge="1" parent="1" source="RQiN7Li-kQ4ZaUQcpRzk-1" target="RQiN7Li-kQ4ZaUQcpRzk-10">
          <mxGeometry width="50" height="50" relative="1" as="geometry">
            <mxPoint x="210" y="530" as="sourcePoint" />
            <mxPoint x="260" y="480" as="targetPoint" />
          </mxGeometry>
        </mxCell>
        <mxCell id="RQiN7Li-kQ4ZaUQcpRzk-14" value="" style="endArrow=classic;html=1;rounded=0;entryX=0.5;entryY=1;entryDx=0;entryDy=0;entryPerimeter=0;exitX=0;exitY=0;exitDx=0;exitDy=0;" edge="1" parent="1" source="RQiN7Li-kQ4ZaUQcpRzk-11" target="RQiN7Li-kQ4ZaUQcpRzk-1">
          <mxGeometry width="50" height="50" relative="1" as="geometry">
            <mxPoint x="280" y="560" as="sourcePoint" />
            <mxPoint x="350" y="480" as="targetPoint" />
          </mxGeometry>
        </mxCell>
        <mxCell id="RQiN7Li-kQ4ZaUQcpRzk-15" value="" style="endArrow=classic;html=1;rounded=0;fontSize=14;entryX=0.5;entryY=0;entryDx=0;entryDy=0;entryPerimeter=0;exitX=0.563;exitY=1.03;exitDx=0;exitDy=0;exitPerimeter=0;" edge="1" parent="1" source="RQiN7Li-kQ4ZaUQcpRzk-9" target="RQiN7Li-kQ4ZaUQcpRzk-6">
          <mxGeometry width="50" height="50" relative="1" as="geometry">
            <mxPoint x="715" y="360" as="sourcePoint" />
            <mxPoint x="680" y="410" as="targetPoint" />
          </mxGeometry>
        </mxCell>
      </root>
    </mxGraphModel>
  </diagram>
</mxfile>
